<svg width="15" height="12" viewBox="1 -8 12 32" fill="none" xmlns="http://www.w3.org/2000/svg">
<path d="M5.6112 10.8612L14.3612 2.11155L14.3612 2.11151C14.49 1.98254 14.5623 1.80772 14.5622 1.62546C14.5621 1.44321 14.4897 1.26845 14.3608 1.13958C14.2319 1.01071 14.0571 0.938291 13.8749 0.938232C13.6926 0.938173 13.5178 1.01048 13.3889 1.13927L13.3888 1.13929L5.12499 9.40283L1.23607 5.51426L1.19256 5.55777L1.23607 5.51425C1.17223 5.45042 1.09644 5.39979 1.01302 5.36524C0.929609 5.3307 0.84021 5.31293 0.749928 5.31293C0.659646 5.31294 0.570249 5.33073 0.486842 5.36529C0.403436 5.39985 0.327652 5.45049 0.263818 5.51434C0.199985 5.57818 0.149352 5.65397 0.114809 5.73739C0.080267 5.8208 0.0624922 5.9102 0.0625 6.00048C0.0625078 6.09076 0.0802978 6.18016 0.114855 6.26357C0.149411 6.34697 0.200058 6.42276 0.2639 6.48659L4.63884 10.8612L5.6112 10.8612Z" fill="white" stroke="white" stroke-width="0.125"/>
</svg>
