<svg xmlns="http://www.w3.org/2000/svg" width="179" height="24" viewBox="0 0 179 24" fill="none">
<path d="M23.2036 0.27417C21.3771 0.27417 19.8888 1.78275 19.8888 3.63418V17.8285L26.5184 23.6913V3.63418C26.5184 1.78275 25.0301 0.27417 23.2036 0.27417Z" fill="#1B2230"></path>
<path d="M9.94372 0.27417C8.11719 0.27417 6.62891 1.78275 6.62891 3.63418V6.13703L13.2585 11.9999V3.63418C13.2585 1.78275 11.7703 0.27417 9.94372 0.27417Z" fill="#1B2230"></path>
<path d="M13.2598 20.3313C13.2598 22.1827 14.748 23.6913 16.5746 23.6913C18.4011 23.6913 19.8894 22.1827 19.8894 20.3313V17.8284L13.2598 11.9656V20.3313Z" fill="#1B2230"></path>
<path d="M0 20.3313C0 22.1827 1.48829 23.6913 3.31482 23.6913C5.14135 23.6913 6.62963 22.1827 6.62963 20.3313V6.13703L0 0.27417V20.3313Z" fill="#1B2230"></path>
<path d="M66.3296 0C63.6574 0 61.5603 1.33714 60.5117 3.29143C59.4632 1.33714 57.4675 0 54.8969 0C52.5968 0 50.8041 1.02857 49.6879 2.60572C49.6879 1.95429 49.6879 1.26857 49.6879 0.514286H46.373C46.373 8.84571 46.373 8.84571 46.373 23.4171H49.6879C49.6879 14.5371 49.6879 11.4514 49.6879 7.78286C49.9246 4.56 52.1232 3.01714 54.1865 3.01714C56.2498 3.01714 57.9411 4.42286 57.9411 7.23429V23.4171H59.7338H61.2559V7.95429C61.2559 4.62857 63.6236 3.01714 65.7884 3.01714C67.8517 3.01714 69.5429 4.42286 69.5429 7.23429V23.4171H72.8916V6.44571C72.8916 2.88 70.2194 0 66.3296 0Z" fill="#1B2230"></path>
<path d="M105.432 6.71916C105.432 4.79916 106.92 3.22201 109.93 3.22201C112.636 3.22201 114.835 4.55916 114.733 8.0563H118.048C118.183 2.81059 114.767 0.0334473 109.863 0.0334473C106.683 0.0334473 101.981 1.8163 101.981 6.89059C101.981 15.1192 115.105 12.1363 115.105 17.3134C115.105 19.7477 112.907 20.7763 110.268 20.7763C106.751 20.7763 105.059 19.3363 105.161 15.942H101.778C101.643 21.9763 105.804 23.9649 110.167 23.9649C114.733 23.9649 118.522 21.702 118.522 17.0392C118.522 9.01631 105.432 12.102 105.432 6.71916Z" fill="#1B2230"></path>
<path d="M155.627 0.0337C152.955 -0.103443 149.775 0.925126 148.219 3.77084C148.219 2.63941 148.219 1.54227 148.219 0.513698H144.904C144.904 8.60513 144.904 23.4166 144.904 23.4166H148.219C148.219 23.4166 148.219 17.3137 148.219 10.5251C148.219 5.65656 151.331 3.29085 155.627 3.66799V0.0337Z" fill="#1B2230"></path>
<path d="M95.554 4.21714C93.4907 1.64571 90.3789 0 86.8611 0C80.0285 0 75.3945 5.38286 75.3945 12C75.3945 18.6171 79.927 24 86.8611 24C90.3789 24 93.4907 22.3543 95.554 19.7829C95.554 20.88 95.554 22.1143 95.554 23.4171H98.8688C98.8688 9.84 98.8688 9.84 98.8688 0.514286H95.554C95.554 1.95429 95.554 3.15428 95.554 4.21714ZM87.1993 20.88C82.1256 20.88 78.8108 16.9029 78.8108 12C78.8108 7.09714 82.1933 3.12 87.1993 3.12C91.8671 3.12 95.5202 7.09714 95.5202 12C95.5202 16.9029 91.8671 20.88 87.1993 20.88Z" fill="#1B2230"></path>
<path d="M175.685 0.548574C175.685 1.98857 175.685 3.18857 175.685 4.21714C173.622 1.64571 170.51 0 166.992 0C160.16 0 155.526 5.38286 155.526 12C155.526 18.6171 160.058 24 166.992 24C170.51 24 173.622 22.3543 175.685 19.7829C175.685 20.88 175.685 22.08 175.685 23.4171H179C179 9.80571 179 9.84 179 0.514286H175.685V0.548574ZM167.33 20.88C162.257 20.88 158.942 16.9029 158.942 12C158.942 7.09714 162.324 3.12 167.33 3.12C171.998 3.12 175.651 7.09714 175.651 12C175.651 16.9029 171.998 20.88 167.33 20.88Z" fill="#1B2230"></path>
<path d="M138.039 14.057C138.039 17.7942 135.197 20.777 131.104 20.777C126.978 20.777 124.17 17.7942 124.17 14.057V0.51416H120.856V14.3999C120.856 19.6799 124.745 23.9656 131.104 23.9656C137.463 23.9656 141.353 19.6799 141.353 14.3999V0.51416H138.039V14.057Z" fill="#1B2230"></path>
</svg>
