<svg xmlns="http://www.w3.org/2000/svg" width="12" height="12" viewBox="0 0 12 12" fill="none" class="rating-star__full">
<path d="M6.86501 1.75495L7.74501 3.51495C7.86501 3.75995 8.18501 3.99495 8.45501 4.03995L10.05 4.30495C11.07 4.47495 11.31 5.21495 10.575 5.94495L9.33501 7.18495C9.12501 7.39495 9.01001 7.79995 9.07501 8.08995L9.43001 9.62495C9.71001 10.8399 9.06501 11.3099 7.99001 10.6749L6.49501 9.78995C6.22501 9.62995 5.78002 9.62995 5.50502 9.78995L4.01002 10.6749C2.94002 11.3099 2.29002 10.8349 2.57002 9.62495L2.92502 8.08995C2.99002 7.79995 2.87502 7.39495 2.66502 7.18495L1.42502 5.94495C0.695016 5.21495 0.930016 4.47495 1.95002 4.30495L3.54502 4.03995C3.81002 3.99495 4.13002 3.75995 4.25002 3.51495L5.13002 1.75495C5.61002 0.799946 6.39001 0.799946 6.86501 1.75495Z" stroke="#FFCE31" stroke-width="1.5" stroke-linecap="round" stroke-linejoin="round"></path>
</svg>